<mxfile host="app.diagrams.net" modified="2022-01-11T16:49:56.657Z" agent="5.0 (Windows NT 10.0; Win64; x64) AppleWebKit/537.36 (KHTML, like Gecko) Chrome/96.0.4664.110 Safari/537.36" etag="P-oO4UcR9hsGwmkYU5GE" version="16.2.4" type="github">
  <diagram id="SS1LPyQPDUftOtEllxq1" name="Page-1">
    <mxGraphModel dx="2062" dy="1114" grid="1" gridSize="10" guides="1" tooltips="1" connect="1" arrows="1" fold="1" page="1" pageScale="1" pageWidth="827" pageHeight="1169" math="0" shadow="0">
      <root>
        <mxCell id="0" />
        <mxCell id="1" parent="0" />
        <mxCell id="m1uU3trw1NpVAwWZ_lOn-1" value="DIPARTIMENTO" style="rounded=0;whiteSpace=wrap;html=1;" vertex="1" parent="1">
          <mxGeometry x="40" y="40" width="170" height="80" as="geometry" />
        </mxCell>
        <mxCell id="m1uU3trw1NpVAwWZ_lOn-2" value="CORSO DI LAUREA" style="rounded=0;whiteSpace=wrap;html=1;" vertex="1" parent="1">
          <mxGeometry x="320" y="40" width="160" height="80" as="geometry" />
        </mxCell>
        <mxCell id="m1uU3trw1NpVAwWZ_lOn-3" value="CORSI" style="rounded=0;whiteSpace=wrap;html=1;" vertex="1" parent="1">
          <mxGeometry x="320" y="190" width="160" height="70" as="geometry" />
        </mxCell>
        <mxCell id="m1uU3trw1NpVAwWZ_lOn-5" value="" style="endArrow=classic;startArrow=classic;html=1;rounded=0;entryX=1;entryY=0.5;entryDx=0;entryDy=0;exitX=0;exitY=0.5;exitDx=0;exitDy=0;" edge="1" parent="1" source="m1uU3trw1NpVAwWZ_lOn-2" target="m1uU3trw1NpVAwWZ_lOn-1">
          <mxGeometry width="50" height="50" relative="1" as="geometry">
            <mxPoint x="390" y="290" as="sourcePoint" />
            <mxPoint x="250" y="120" as="targetPoint" />
          </mxGeometry>
        </mxCell>
        <mxCell id="m1uU3trw1NpVAwWZ_lOn-6" value="1..1" style="text;html=1;align=center;verticalAlign=middle;resizable=0;points=[];autosize=1;strokeColor=none;fillColor=none;" vertex="1" parent="1">
          <mxGeometry x="210" y="60" width="40" height="20" as="geometry" />
        </mxCell>
        <mxCell id="m1uU3trw1NpVAwWZ_lOn-7" value="1..N" style="text;html=1;align=center;verticalAlign=middle;resizable=0;points=[];autosize=1;strokeColor=none;fillColor=none;" vertex="1" parent="1">
          <mxGeometry x="280" y="80" width="40" height="20" as="geometry" />
        </mxCell>
        <mxCell id="m1uU3trw1NpVAwWZ_lOn-8" value="" style="endArrow=classic;startArrow=classic;html=1;rounded=0;entryX=0.5;entryY=1;entryDx=0;entryDy=0;" edge="1" parent="1" target="m1uU3trw1NpVAwWZ_lOn-2">
          <mxGeometry width="50" height="50" relative="1" as="geometry">
            <mxPoint x="400" y="190" as="sourcePoint" />
            <mxPoint x="440" y="240" as="targetPoint" />
          </mxGeometry>
        </mxCell>
        <mxCell id="m1uU3trw1NpVAwWZ_lOn-9" value="1..N" style="text;html=1;align=center;verticalAlign=middle;resizable=0;points=[];autosize=1;strokeColor=none;fillColor=none;" vertex="1" parent="1">
          <mxGeometry x="400" y="130" width="40" height="20" as="geometry" />
        </mxCell>
        <mxCell id="m1uU3trw1NpVAwWZ_lOn-11" value="1..N" style="text;html=1;align=center;verticalAlign=middle;resizable=0;points=[];autosize=1;strokeColor=none;fillColor=none;" vertex="1" parent="1">
          <mxGeometry x="400" y="170" width="40" height="20" as="geometry" />
        </mxCell>
        <mxCell id="m1uU3trw1NpVAwWZ_lOn-12" value="INSEGNANTE" style="rounded=0;whiteSpace=wrap;html=1;" vertex="1" parent="1">
          <mxGeometry x="550" y="190" width="160" height="70" as="geometry" />
        </mxCell>
        <mxCell id="m1uU3trw1NpVAwWZ_lOn-13" value="" style="endArrow=classic;startArrow=classic;html=1;rounded=0;entryX=0;entryY=0.5;entryDx=0;entryDy=0;" edge="1" parent="1" source="m1uU3trw1NpVAwWZ_lOn-3" target="m1uU3trw1NpVAwWZ_lOn-12">
          <mxGeometry width="50" height="50" relative="1" as="geometry">
            <mxPoint x="390" y="290" as="sourcePoint" />
            <mxPoint x="440" y="240" as="targetPoint" />
          </mxGeometry>
        </mxCell>
        <mxCell id="m1uU3trw1NpVAwWZ_lOn-14" value="1..N" style="text;html=1;align=center;verticalAlign=middle;resizable=0;points=[];autosize=1;strokeColor=none;fillColor=none;" vertex="1" parent="1">
          <mxGeometry x="510" y="210" width="40" height="20" as="geometry" />
        </mxCell>
        <mxCell id="m1uU3trw1NpVAwWZ_lOn-15" value="N..1" style="text;html=1;align=center;verticalAlign=middle;resizable=0;points=[];autosize=1;strokeColor=none;fillColor=none;" vertex="1" parent="1">
          <mxGeometry x="480" y="230" width="40" height="20" as="geometry" />
        </mxCell>
        <mxCell id="m1uU3trw1NpVAwWZ_lOn-17" value="STUDENTI" style="rounded=0;whiteSpace=wrap;html=1;" vertex="1" parent="1">
          <mxGeometry x="70" y="330" width="200" height="80" as="geometry" />
        </mxCell>
        <mxCell id="m1uU3trw1NpVAwWZ_lOn-18" value="ESAMI" style="rounded=0;whiteSpace=wrap;html=1;" vertex="1" parent="1">
          <mxGeometry x="480" y="330" width="230" height="80" as="geometry" />
        </mxCell>
        <mxCell id="m1uU3trw1NpVAwWZ_lOn-19" value="" style="endArrow=classic;startArrow=classic;html=1;rounded=0;exitX=0.5;exitY=0;exitDx=0;exitDy=0;entryX=0.104;entryY=1.048;entryDx=0;entryDy=0;entryPerimeter=0;" edge="1" parent="1" source="m1uU3trw1NpVAwWZ_lOn-17" target="m1uU3trw1NpVAwWZ_lOn-3">
          <mxGeometry width="50" height="50" relative="1" as="geometry">
            <mxPoint x="270" y="270" as="sourcePoint" />
            <mxPoint x="320" y="220" as="targetPoint" />
          </mxGeometry>
        </mxCell>
        <mxCell id="m1uU3trw1NpVAwWZ_lOn-20" value="" style="endArrow=classic;startArrow=classic;html=1;rounded=0;" edge="1" parent="1">
          <mxGeometry width="50" height="50" relative="1" as="geometry">
            <mxPoint x="550" y="330" as="sourcePoint" />
            <mxPoint x="470" y="260" as="targetPoint" />
            <Array as="points" />
          </mxGeometry>
        </mxCell>
        <mxCell id="m1uU3trw1NpVAwWZ_lOn-21" value="1..1" style="text;html=1;align=center;verticalAlign=middle;resizable=0;points=[];autosize=1;strokeColor=none;fillColor=none;" vertex="1" parent="1">
          <mxGeometry x="280" y="260" width="40" height="20" as="geometry" />
        </mxCell>
        <mxCell id="m1uU3trw1NpVAwWZ_lOn-22" value="" style="endArrow=classic;startArrow=classic;html=1;rounded=0;entryX=1;entryY=0.5;entryDx=0;entryDy=0;" edge="1" parent="1" source="m1uU3trw1NpVAwWZ_lOn-18" target="m1uU3trw1NpVAwWZ_lOn-17">
          <mxGeometry width="50" height="50" relative="1" as="geometry">
            <mxPoint x="710" y="500" as="sourcePoint" />
            <mxPoint x="760" y="450" as="targetPoint" />
          </mxGeometry>
        </mxCell>
        <mxCell id="m1uU3trw1NpVAwWZ_lOn-23" value="1..N" style="text;html=1;align=center;verticalAlign=middle;resizable=0;points=[];autosize=1;strokeColor=none;fillColor=none;" vertex="1" parent="1">
          <mxGeometry x="430" y="340" width="40" height="20" as="geometry" />
        </mxCell>
        <mxCell id="m1uU3trw1NpVAwWZ_lOn-24" value="1..N" style="text;html=1;align=center;verticalAlign=middle;resizable=0;points=[];autosize=1;strokeColor=none;fillColor=none;" vertex="1" parent="1">
          <mxGeometry x="280" y="340" width="40" height="20" as="geometry" />
        </mxCell>
        <mxCell id="m1uU3trw1NpVAwWZ_lOn-25" value="1..N" style="text;html=1;align=center;verticalAlign=middle;resizable=0;points=[];autosize=1;strokeColor=none;fillColor=none;" vertex="1" parent="1">
          <mxGeometry x="540" y="310" width="40" height="20" as="geometry" />
        </mxCell>
        <mxCell id="m1uU3trw1NpVAwWZ_lOn-26" value="N..1" style="text;html=1;align=center;verticalAlign=middle;resizable=0;points=[];autosize=1;strokeColor=none;fillColor=none;" vertex="1" parent="1">
          <mxGeometry x="430" y="260" width="40" height="20" as="geometry" />
        </mxCell>
      </root>
    </mxGraphModel>
  </diagram>
</mxfile>
